<svg width="14" height="14" viewBox="0 0 14 14" fill="none" xmlns="http://www.w3.org/2000/svg">
  <path
    id="settings"
    d="M5.34376 8.65625C5.80209 9.11458 6.35418 9.34375 7.00001 9.34375C7.64584 9.34375 8.19793 9.11458 8.65626 8.65625C9.11459 8.19792 9.34376 7.64583 9.34376 7C9.34376 6.35417 9.11459 5.80208 8.65626 5.34375C8.19793 4.88542 7.64584 4.65625 7.00001 4.65625C6.35418 4.65625 5.80209 4.88542 5.34376 5.34375C4.88543 5.80208 4.65626 6.35417 4.65626 7C4.65626 7.64583 4.88543 8.19792 5.34376 8.65625ZM11.9688 7.65625L13.375 8.75C13.5208 8.85417 13.5417 9 13.4375 9.1875L12.0938 11.5C12.0104 11.6458 11.875 11.6875 11.6875 11.625L10.0312 10.9688C9.59376 11.2812 9.21876 11.5 8.90626 11.625L8.65626 13.375C8.61459 13.5625 8.51043 13.6562 8.34376 13.6562H5.65626C5.48959 13.6562 5.38543 13.5625 5.34376 13.375L5.09376 11.625C4.69793 11.4583 4.32293 11.2396 3.96876 10.9688L2.31251 11.625C2.12501 11.6875 1.98959 11.6458 1.90626 11.5L0.56251 9.1875C0.458343 9 0.479177 8.85417 0.62501 8.75L2.03126 7.65625C2.01043 7.51042 2.00001 7.29167 2.00001 7C2.00001 6.70833 2.01043 6.48958 2.03126 6.34375L0.62501 5.25C0.479177 5.14583 0.458343 5 0.56251 4.8125L1.90626 2.5C1.98959 2.35417 2.12501 2.3125 2.31251 2.375L3.96876 3.03125C4.40626 2.71875 4.78126 2.5 5.09376 2.375L5.34376 0.625C5.38543 0.4375 5.48959 0.34375 5.65626 0.34375H8.34376C8.51043 0.34375 8.61459 0.4375 8.65626 0.625L8.90626 2.375C9.30209 2.54167 9.67709 2.76042 10.0312 3.03125L11.6875 2.375C11.875 2.3125 12.0104 2.35417 12.0938 2.5L13.4375 4.8125C13.5417 5 13.5208 5.14583 13.375 5.25L11.9688 6.34375C11.9896 6.48958 12 6.70833 12 7C12 7.29167 11.9896 7.51042 11.9688 7.65625Z"
    fill="currentColor"/>
</svg>

