<svg viewBox="0 0 16 16" fill="none" xmlns="http://www.w3.org/2000/svg" id="menu-dots">
<path d="M7.0625 7.0625C7.33333 6.79167 7.64583 6.65625 8 6.65625C8.35417 6.65625 8.66667 6.79167 8.9375 7.0625C9.20833 7.33333 9.34375 7.64583 9.34375 8C9.34375 8.35417 9.20833 8.66667 8.9375 8.9375C8.66667 9.20833 8.35417 9.34375 8 9.34375C7.64583 9.34375 7.33333 9.20833 7.0625 8.9375C6.79167 8.66667 6.65625 8.35417 6.65625 8C6.65625 7.64583 6.79167 7.33333 7.0625 7.0625ZM11.0625 7.0625C11.3333 6.79167 11.6458 6.65625 12 6.65625C12.3542 6.65625 12.6667 6.79167 12.9375 7.0625C13.2083 7.33333 13.3438 7.64583 13.3438 8C13.3438 8.35417 13.2083 8.66667 12.9375 8.9375C12.6667 9.20833 12.3542 9.34375 12 9.34375C11.6458 9.34375 11.3333 9.20833 11.0625 8.9375C10.7917 8.66667 10.6562 8.35417 10.6562 8C10.6562 7.64583 10.7917 7.33333 11.0625 7.0625ZM3.0625 7.0625C3.33333 6.79167 3.64583 6.65625 4 6.65625C4.35417 6.65625 4.66667 6.79167 4.9375 7.0625C5.20833 7.33333 5.34375 7.64583 5.34375 8C5.34375 8.35417 5.20833 8.66667 4.9375 8.9375C4.66667 9.20833 4.35417 9.34375 4 9.34375C3.64583 9.34375 3.33333 9.20833 3.0625 8.9375C2.79167 8.66667 2.65625 8.35417 2.65625 8C2.65625 7.64583 2.79167 7.33333 3.0625 7.0625Z"
      fill="currentColor"/>
</svg>
